<svg xmlns="http://www.w3.org/2000/svg" viewBox="0 0 512 512" role="img" aria-label="Bronx Nourish Access icon">
  <rect width="512" height="512" rx="112" fill="#0b5f2a"/>
  <circle cx="256" cy="256" r="174" fill="#fff8e8"/>
  <path d="M257 117c-58 32-96 89-96 151 0 68 43 116 95 140 52-24 96-72 96-140 0-62-38-119-95-151z" fill="#0b5f2a"/>
  <path d="M256 162c-34 47-48 95-40 144 4 25 18 49 40 70 22-21 36-45 40-70 8-49-6-97-40-144z" fill="#f4b321"/>
  <path d="M256 154v225" stroke="#fff8e8" stroke-width="18" stroke-linecap="round"/>
  <path d="M182 278c38-9 61-28 74-60 13 32 36 51 74 60" fill="none" stroke="#fff8e8" stroke-width="18" stroke-linecap="round"/>
  <text x="256" y="468" text-anchor="middle" font-family="Arial, Helvetica, sans-serif" font-size="40" font-weight="900" fill="#fff8e8">BNA</text>
</svg>
